<?xml version="1.0" encoding="iso-8859-1"?>
<!-- Generator: Adobe Illustrator 16.0.0, SVG Export Plug-In . SVG Version: 6.00 Build 0)  -->
<!DOCTYPE svg PUBLIC "-//W3C//DTD SVG 1.1//EN" "http://www.w3.org/Graphics/SVG/1.1/DTD/svg11.dtd">
<svg xmlns="http://www.w3.org/2000/svg" xmlns:xlink="http://www.w3.org/1999/xlink" version="1.1" id="Capa_1" x="0px" y="0px" width="512px" height="512px" viewBox="0 0 481.866 481.866" style="enable-background:new 0 0 481.866 481.866;" xml:space="preserve">
<g>
	<path d="M205.144,350.542c2.399,13.343,7.741,25.683,15.355,36.295l-104.778,0.397C51.816,387.234,0,335.42,0,271.514   c0-60.623,46.65-110.271,106.001-115.223c17.075-42.606,58.667-72.729,107.375-72.729c51.369,0,94.866,33.512,109.977,79.839   c6.675-1.195,13.517-1.925,20.535-1.925c57.182,0,104.552,41.516,113.929,96.009c-10.516-5.161-22.155-8.363-34.476-9.026   c-15.989-26.268-44.664-42.876-76.456-42.876c-19.182,0-37.197,6.027-52.029,16.612c-15.019-19.581-38.582-32.263-65.173-32.263   c-45.383,0-82.167,36.793-82.167,82.175C147.512,308.935,171.741,340.11,205.144,350.542z M418.376,274.426   c-3.864,0-7.612,0.401-11.267,1.064c-8.294-25.417-32.161-43.81-60.346-43.81c-14.906,0-28.595,5.152-39.408,13.758   c2.865,8.368,4.499,17.315,4.499,26.663c0,44.361-35.181,80.424-79.166,82.02c8.181,25.613,32.164,44.184,60.488,44.184   l125.199-0.472c35.063,0,63.49-24.848,63.49-59.906C481.866,302.858,453.439,274.426,418.376,274.426z M198.456,247.591   c5.773,0,9.726,1.325,12.258,2.768l2.401-8.168c-2.882-1.441-8.408-3.01-14.659-3.01c-18.995,0-31.244,12.983-31.244,30.896   c0,17.786,11.411,29.683,28.964,29.683c7.811,0,13.948-1.913,16.708-3.364l-1.802-7.93c-3.01,1.32-6.977,2.884-12.984,2.884   c-11.532,0-20.196-8.298-20.196-21.758C177.907,257.457,185.113,247.591,198.456,247.591z M208.842,269.955   c0-19.471,12.737-30.892,28.845-30.892c16.706,0,28,12.135,28,29.93c0,21.507-14.906,30.887-28.959,30.887   C220.986,299.88,208.842,288.334,208.842,269.955z M219.532,269.591c0,12.741,7.337,22.355,17.674,22.355   c10.092,0,17.663-9.493,17.663-22.598c0-9.857-4.929-22.355-17.424-22.355C224.946,246.993,219.532,258.535,219.532,269.591z    M272.944,291.471l-4.046,3.92v3.169h24.315v-4.279h-17.1v-0.117l3.047-2.814c8.032-7.733,13.124-13.413,13.124-20.441   c0-5.451-3.468-11.08-11.663-11.08c-4.387,0-8.14,1.634-10.776,3.865l1.639,3.635c1.75-1.461,4.63-3.22,8.083-3.22   c5.685,0,7.551,3.575,7.551,7.444C287.062,277.282,282.666,282.211,272.944,291.471z" fill="#FFFFFF"/>
</g>
<g>
</g>
<g>
</g>
<g>
</g>
<g>
</g>
<g>
</g>
<g>
</g>
<g>
</g>
<g>
</g>
<g>
</g>
<g>
</g>
<g>
</g>
<g>
</g>
<g>
</g>
<g>
</g>
<g>
</g>
</svg>
